<?xml version="1.0" encoding="UTF-8" standalone="no"?>
<!-- Created with Inkscape (http://www.inkscape.org/) -->

<svg
   xmlns:dc="http://purl.org/dc/elements/1.1/"
   xmlns:cc="http://creativecommons.org/ns#"
   xmlns:rdf="http://www.w3.org/1999/02/22-rdf-syntax-ns#"
   xmlns:svg="http://www.w3.org/2000/svg"
   xmlns="http://www.w3.org/2000/svg"
   version="1.0"
   width="450.98001"
   height="424.26001"
   id="svg2">
  <defs
     id="defs4" />
  <metadata
     id="metadata7">
    <rdf:RDF>
      <cc:Work
         rdf:about="">
        <dc:format>image/svg+xml</dc:format>
        <dc:type
           rdf:resource="http://purl.org/dc/dcmitype/StillImage" />
        <dc:title></dc:title>
      </cc:Work>
    </rdf:RDF>
  </metadata>
  <g
     transform="translate(-134.79181,-89.729889)"
     id="layer1">
    <path
       d="m 330.04444,167.43146 12.93501,-41.94076 c 19.64774,43.27861 22.01618,41.99275 43.67145,38.03705"
       id="path4207"
       style="fill:none;stroke:#000000;stroke-width:14.36900043;stroke-linecap:butt;stroke-linejoin:miter;stroke-miterlimit:4;stroke-opacity:1;stroke-dasharray:none;marker-start:none;marker-end:none" />
    <path
       d="m 493.47715,153.89526 -11.53834,-42.34631 c -21.07084,42.6039 -25.08398,38.98882 -43.78196,41.63509"
       id="path4251"
       style="fill:none;stroke:#000000;stroke-width:14.36900043;stroke-linecap:butt;stroke-linejoin:miter;stroke-miterlimit:4;stroke-opacity:1;stroke-dasharray:none;marker-start:none;marker-end:none" />
    <path
       d="m 494.26389,376.89521 c 0,0 -24.7132,34.32369 -51.97563,35.5446 -11.97246,0.53617 -41.05804,-5.18347 -52.86879,-13.3821 -11.51453,-7.993 -36.50662,-40.03407 -36.50662,-40.03407"
       id="path4333"
       style="fill:none;stroke:#000000;stroke-width:21.3949585;stroke-linecap:butt;stroke-linejoin:miter;stroke-miterlimit:4;stroke-opacity:1;stroke-dasharray:none" />
    <path
       d="m 282.7801,440.7919 c 0,0 -45.46179,-5.05554 -61.07918,-17.58644 -9.80437,-7.86671 -16.56138,-26.25122 -22.90468,-38.10392 -5.01276,-9.36652 -15.2698,-32.24179 -15.2698,-32.24179"
       id="path4337"
       style="fill:none;stroke:#000000;stroke-width:23.16683578;stroke-linecap:square;stroke-linejoin:miter;stroke-miterlimit:4;stroke-opacity:1;stroke-dasharray:none" />
    <path
       d="m 160.12227,342.89867 0.33111,-27.64267 c 12.8258,5.82273 0.2423,0.11075 28.53372,12.66181"
       id="path4433"
       style="fill:none;stroke:#000000;stroke-width:24.7689991;stroke-linecap:butt;stroke-linejoin:miter;stroke-miterlimit:4;stroke-opacity:1;stroke-dasharray:none;marker-start:none;marker-end:none" />
    <g
       transform="matrix(0.77679193,0,0,1.3001452,-9.3634969,1.5266829)"
       id="text2387"
       style="font-size:273.31192017px;font-style:normal;font-variant:normal;font-weight:normal;font-stretch:normal;fill:#433939;fill-opacity:1;stroke:none;font-family:Rachana_w01;-inkscape-font-specification:Rachana_w01">
      <path
         d="m 623.93663,354.54554 9.34172,0 c 12.45557,-3e-5 20.55171,-1.91285 24.28846,-5.73848 3.82559,-3.82567 5.73841,-12.09976 5.73848,-24.82228 l 0,-33.09636 c -7e-5,-13.87907 2.00173,-23.97701 6.00539,-30.29385 4.00351,-6.31671 10.94307,-10.67617 20.81868,-13.07841 -9.87561,-2.22413 -16.81517,-6.49462 -20.81868,-12.81149 -4.00366,-6.31668 -6.00546,-16.4591 -6.00539,-30.42731 l 0,-33.09636 c -7e-5,-12.63339 -1.91289,-20.86299 -5.73848,-24.68882 -3.73675,-3.91444 -11.83289,-5.87175 -24.28846,-5.87194 l -9.34172,0 0,-19.08379 8.40755,0 c 22.15315,2.1e-4 36.92194,3.29205 44.30642,9.87553 7.47328,6.49491 11.20996,19.5733 11.21006,39.23521 l 0,32.02874 c -1e-4,13.25645 2.40206,22.4647 7.20647,27.62479 4.8042,5.07131 13.52313,7.60691 26.1568,7.60682 l 8.2741,0 0,19.08379 -8.2741,0 c -12.63367,8e-5 -21.3526,2.58017 -26.1568,7.74028 -4.80441,5.16025 -7.20657,14.45747 -7.20647,27.8917 l 0,31.89529 c -1e-4,19.66207 -3.73678,32.78494 -11.21006,39.36866 -7.38448,6.58364 -22.15327,9.87548 -44.30642,9.87552 l -8.40755,0 0,-19.21724"
         id="path3012" />
    </g>
    <g
       transform="scale(0.76864273,1.3009945)"
       id="text2383"
       style="font-size:275.80737305px;font-style:normal;font-variant:normal;font-weight:normal;font-stretch:normal;fill:#433939;fill-opacity:1;stroke:none;font-family:Rachana_w01;-inkscape-font-specification:Rachana_w01">
      <path
         d="m 451.41132,370.79277 0,19.3927 -8.34964,0 c -22.35559,-4e-5 -37.34901,-3.32194 -44.9803,-9.96569 -7.54169,-6.64383 -11.31249,-19.88652 -11.31241,-39.72812 l 0,-32.1865 c -8e-5,-13.55689 -2.42417,-22.939 -7.27227,-28.14636 -4.84824,-5.20723 -13.64677,-7.81088 -26.39563,-7.81095 l -8.21496,0 0,-19.25803 8.21496,0 c 12.83864,9e-5 21.63717,-2.55867 26.39563,-7.67628 4.8481,-5.2072 7.27219,-14.49953 7.27227,-27.87702 l 0,-32.32117 c -8e-5,-19.84144 3.77072,-33.03924 11.31241,-39.59345 7.63129,-6.64359 22.62471,-9.96548 44.9803,-9.96569 l 8.34964,0 0,19.25803 -9.15767,0 c -12.65924,1.9e-4 -20.91909,1.97537 -24.77957,5.92555 -3.86068,3.95055 -5.79097,12.25529 -5.79087,24.91424 l 0,33.39855 c -10e-5,14.09574 -2.06507,24.33077 -6.1949,30.70512 -4.04023,6.37454 -10.99826,10.68403 -20.87409,12.92847 9.96561,2.42417 16.96853,6.82343 21.00877,13.19781 4.04004,6.37452 6.06012,16.56466 6.06022,30.57045 l 0,33.39855 c -10e-5,12.65912 1.93019,20.96386 5.79087,24.91424 3.86048,3.95034 12.12033,5.92552 24.77957,5.92555 l 9.15767,0"
         id="path3044" />
    </g>
    <path
       d="m 460.43743,182.52764 c -21.06043,4.1314 -46.37695,8.83332 -67.67395,11.44904 -19.39051,3.18758 -39.14746,3.17554 -58.74743,4.7506 -8.07131,0.34438 -15.9513,5.58144 -17.96217,13.6602 -4.01215,13.36082 -2.47838,27.55425 -3.14188,41.31734 -0.5142,19.71206 0.24528,39.55664 -1.6425,59.17212 -1.71141,9.41498 -5.01631,20.03498 -14.23415,24.64878 -3.32018,0.94616 -5.50412,5.36833 -2.19455,7.68093 8.94749,4.18357 14.2465,13.4405 15.80951,22.92402 2.48163,14.24288 1.48755,28.86249 2.0212,43.28265 0.51385,17.76073 -0.26965,35.64277 1.69376,53.31476 0.9388,7.63006 4.27116,16.07415 12.04889,18.96161 9.1705,3.51615 19.2728,1.94819 28.86399,2.06783 17.2539,-0.93618 34.35252,-4.28343 51.16875,-7.99552 16.2881,-3.06767 32.81997,-5.43899 49.30164,-7.41826 12.21687,-1.34924 24.72283,-0.564 36.86985,-2.67818 7.79972,-1.64149 12.97816,-8.84452 14.19485,-16.41112 2.25519,-11.18046 1.23983,-22.7623 1.79347,-34.12359 0.55769,-20.4113 -0.1777,-40.94185 1.63653,-61.26488 1.39237,-9.96511 4.73912,-21.14749 14.22654,-26.41354 3.34484,-1.07243 5.45959,-5.74143 1.88555,-7.86863 -10.83785,-4.55323 -14.91762,-16.83668 -16.18244,-27.61568 -1.71641,-20.75604 -1.05358,-41.70916 -1.56495,-62.54834 -0.60862,-12.66822 0.74248,-25.83983 -3.43051,-38.02908 -2.91689,-7.91042 -11.45092,-11.86639 -19.46886,-11.86524 -10.02011,-0.44179 -15.24765,0.96467 -25.27114,1.00218 z M 361.08329,357.6601 c 10.08808,12.02729 19.9538,24.49377 31.81961,34.77468 10.63156,6.74076 23.31392,9.5325 35.54858,11.62672 9.95707,1.71891 20.66642,1.3549 29.57448,-3.91939 11.09834,-6.18616 20.1291,-15.47539 28.36577,-24.99793 3.84314,2.93584 7.64627,5.91598 11.39807,9.00588 -12.16723,14.90334 -27.40445,28.58194 -46.13759,34.10626 -6.92389,1.20194 -14.20779,1.26788 -21.24245,0.67573 -13.53635,-1.97053 -27.16918,-4.90064 -39.60005,-10.82493 -14.36084,-8.29198 -24.51768,-21.9268 -35.21389,-34.24991 -2.10298,-2.51443 -4.1766,-5.05273 -6.2448,-7.59579 3.80024,-3.0185 7.54619,-6.07876 11.39807,-9.02347 z"
       id="path3173"
       style="fill:#ff0000;fill-opacity:1;stroke:none" />
    <g
       transform="translate(5.6286791,16.886029)"
       id="g3169">
      <path
         d="m 416.62331,233.38677 0,33.92413"
         id="path3196"
         style="fill:none;stroke:#000000;stroke-width:21.01638222;stroke-linecap:round;stroke-linejoin:miter;stroke-miterlimit:4;stroke-opacity:1;stroke-dasharray:none" />
      <path
         d="m 367.60599,234.516 0,33.92413"
         id="path3212"
         style="fill:none;stroke:#000000;stroke-width:21.01638222;stroke-linecap:round;stroke-linejoin:miter;stroke-miterlimit:4;stroke-opacity:1;stroke-dasharray:none" />
    </g>
  </g>
</svg>
